<?xml version="1.0" encoding="utf-8"?>
<!-- Generator: Adobe Illustrator 18.0.0, SVG Export Plug-In . SVG Version: 6.00 Build 0)  -->
<!DOCTYPE svg PUBLIC "-//W3C//DTD SVG 1.1//EN" "http://www.w3.org/Graphics/SVG/1.1/DTD/svg11.dtd">
<svg version="1.1" xmlns="http://www.w3.org/2000/svg" xmlns:xlink="http://www.w3.org/1999/xlink" x="0px" y="0px"
	 viewBox="0 0 412.9 250" enable-background="new 0 0 412.9 250" xml:space="preserve">
<g id="Background" display="none">
	<rect x="0" y="-81.5" display="inline" fill="#43D343" width="412.5" height="412.5"/>
</g>
<g id="Elements">
	<g id="Phone">
		<path fill="#FFFFFF" d="M272.5,22.6c0-3.6-3-6.6-6.6-6.6H146.1c-3.6,0-6.6,3-6.6,6.6v204.8c0,3.6,3,6.6,6.6,6.6h119.8
			c3.6,0,6.6-3,6.6-6.6V22.6z M224.5,24c0,0.6-0.4,1-1,1h-33c-0.6,0-1-0.4-1-1v-1c0-0.6,0.4-1,1-1h33c0.6,0,1,0.4,1,1V24z
			 M217.5,221.3c0,0.9-0.7,1.7-1.7,1.7h-18.7c-0.9,0-1.7-0.7-1.7-1.7v-2.7c0-0.9,0.7-1.7,1.7-1.7h18.7c0.9,0,1.7,0.7,1.7,1.7V221.3z
			 M262.5,207h-112V34h112V207z"/>
		<g>
			<rect x="155.7" y="39.3" opacity="0.4" fill="#FFFFFF" width="19.8" height="2.6"/>
			<rect x="155.7" y="44.8" opacity="0.4" fill="#FFFFFF" width="19.8" height="2.6"/>
			<rect x="155.7" y="50.2" opacity="0.4" fill="#FFFFFF" width="19.8" height="2.6"/>
		</g>
		<g>
			<circle opacity="0.4" fill="#FFFFFF" cx="255.5" cy="41.3" r="1.3"/>
			<circle opacity="0.4" fill="#FFFFFF" cx="255.5" cy="46.4" r="1.3"/>
			<circle opacity="0.4" fill="#FFFFFF" cx="255.5" cy="51.5" r="1.3"/>
		</g>
		<g opacity="0.4">
			<rect x="197.8" y="185.4" fill="#FFFFFF" width="3.9" height="3.9"/>
			<rect x="197.8" y="189.9" fill="#FFFFFF" width="3.9" height="3.9"/>
			<rect x="197.8" y="194.3" fill="#FFFFFF" width="3.9" height="3.9"/>
			<rect x="197.8" y="198.8" fill="#FFFFFF" width="3.9" height="3.9"/>
			<rect x="202.2" y="185.4" fill="#FFFFFF" width="3.9" height="3.9"/>
			<rect x="202.2" y="189.9" fill="#FFFFFF" width="3.9" height="3.9"/>
			<rect x="202.2" y="194.3" fill="#FFFFFF" width="3.9" height="3.9"/>
			<rect x="202.2" y="198.8" fill="#FFFFFF" width="3.9" height="3.9"/>
			<rect x="206.7" y="185.4" fill="#FFFFFF" width="3.9" height="3.9"/>
			<rect x="206.7" y="189.9" fill="#FFFFFF" width="3.9" height="3.9"/>
			<rect x="206.7" y="194.3" fill="#FFFFFF" width="3.9" height="3.9"/>
			<rect x="206.7" y="198.8" fill="#FFFFFF" width="3.9" height="3.9"/>
			<rect x="211.1" y="185.4" fill="#FFFFFF" width="3.9" height="3.9"/>
			<rect x="211.1" y="189.9" fill="#FFFFFF" width="3.9" height="3.9"/>
			<rect x="211.1" y="194.3" fill="#FFFFFF" width="3.9" height="3.9"/>
			<rect x="211.1" y="198.8" fill="#FFFFFF" width="3.9" height="3.9"/>
		</g>
		<path opacity="0.4" fill="#FFFFFF" d="M156.5,101v40h100v-40H156.5z M188.5,135h-30v-29h30V135z M252.5,135h-60v-3h60V135z
			 M252.5,131h-60v-4h60V131z M252.5,126h-60v-3h60V126z M252.5,119h-60v-13h60V119z"/>
		<path opacity="0.4" fill="#FFFFFF" d="M156.5,60v38h100V60H156.5z M188.5,94h-30V64h30V94z M252.5,94h-60v-4h60V94z M252.5,89h-60
			v-3h60V89z M252.5,84h-60v-3h60V84z M252.5,78h-60V64h60V78z"/>
		<path opacity="0.4" fill="#FFFFFF" d="M156.5,143v39h100v-39H156.5z M188.5,177h-30v-29h30V177z M252.5,177h-60v-2h60V177z
			 M252.5,173h-60v-4h60V173z M252.5,167h-60v-3h60V167z M252.5,162h-60v-14h60V162z"/>
	</g>
</g>
</svg>
