<?xml version="1.0" encoding="utf-8"?>
<!-- Generator: Adobe Illustrator 18.0.0, SVG Export Plug-In . SVG Version: 6.00 Build 0)  -->
<!DOCTYPE svg PUBLIC "-//W3C//DTD SVG 1.1//EN" "http://www.w3.org/Graphics/SVG/1.1/DTD/svg11.dtd">
<svg version="1.1" id="Layer_1" xmlns="http://www.w3.org/2000/svg" xmlns:xlink="http://www.w3.org/1999/xlink" x="0px" y="0px"
	 viewBox="0 0 895.9 143.4" enable-background="new 0 0 895.9 143.4" xml:space="preserve">
<linearGradient id="SVGID_1_" gradientUnits="userSpaceOnUse" x1="188.1221" y1="331.5674" x2="707.8116" y2="-188.1221">
	<stop  offset="1.461837e-007" style="stop-color:#43D343"/>
	<stop  offset="1" style="stop-color:#43D3FF"/>
</linearGradient>
<rect x="0" y="0" fill="url(#SVGID_1_)" width="895.9" height="143.4"/>
<linearGradient id="SVGID_2_" gradientUnits="userSpaceOnUse" x1="193.2174" y1="326.4721" x2="702.7164" y2="-183.0268">
	<stop  offset="1.461837e-007" style="stop-color:#43D343"/>
	<stop  offset="1" style="stop-color:#43D3FF"/>
</linearGradient>
<rect x="5.1" y="5.1" fill="url(#SVGID_2_)" width="885.7" height="133.3"/>
<path fill="#FFFFFF" d="M52.3,42.7v50.8h31.4v3.4H48.3V42.7H52.3z M107.7,57.1c10.9,0,16.4,6,16.4,18.1c0,0.9,0,1.8-0.1,2.7H93.8
	c0,10.4,5.5,15.6,16.5,15.6c4.5,0,8.5-0.6,12.1-1.9V95c-3.5,1.3-7.5,1.9-12.1,1.9c-13.7,0-20.5-6.8-20.5-20.4
	C89.8,63.6,95.8,57.1,107.7,57.1z M93.8,74.3h26.5c-0.2-9.3-4.3-13.9-12.5-13.9C98.9,60.4,94.2,65.1,93.8,74.3z M134.2,50.6h2.8
	l0.7,6.5h12v3.4H138v25.2c0,5.2,1.9,7.9,5.8,7.9h5.8v3.4h-5.8c-6.5,0-9.7-3.6-9.7-10.7V50.6z M164.4,42.7l-5.7,16.5h-4.4l5.7-16.5
	H164.4z M171.6,95v-3.8c4.4,1.5,8.8,2.3,13.1,2.3c8.4,0,12.6-2.7,12.6-8c0-4.3-3.1-6.5-9.3-6.5h-5.1c-8.3,0-12.5-3.5-12.5-10.6
	c0-7.6,5.5-11.4,16.6-11.4c4.2,0,8.6,0.6,13,1.9v3.8c-4.4-1.5-8.8-2.3-13-2.3c-8.4,0-12.6,2.7-12.6,8c0,4.6,2.8,6.8,8.5,6.8h5.1
	c8.9,0,13.3,3.4,13.3,10.2c0,7.6-5.5,11.4-16.5,11.4C180.4,96.9,176,96.3,171.6,95z M272.1,95c-4.9,1.5-10,2.3-15.2,2.3
	c-19,0-28.5-9.4-28.5-28.3c0-17.8,9.5-26.7,28.5-26.7c5.2,0,10.2,0.8,15.2,2.3V48c-4.9-1.5-9.7-2.3-14.4-2.3
	c-16.8,0-25.2,7.8-25.2,23.3c0,16.6,8.4,24.9,25.2,24.9c4.7,0,9.5-0.8,14.4-2.3V95z M283.7,96.9V57.1h2.8l0.5,6.6
	c4-4.4,8.4-6.6,13.4-6.6v3.2c-4.8,0-9,2.3-12.7,6.9v29.7H283.7z M323.8,57.1c10.9,0,16.4,6,16.4,18.1c0,0.9,0,1.8-0.1,2.7h-30.2
	c0,10.4,5.5,15.6,16.5,15.6c4.5,0,8.5-0.6,12.1-1.9V95c-3.5,1.3-7.5,1.9-12.1,1.9c-13.7,0-20.5-6.8-20.5-20.4
	C305.9,63.6,311.9,57.1,323.8,57.1z M309.9,74.3h26.5c-0.2-9.3-4.3-13.9-12.5-13.9C315,60.4,310.3,65.1,309.9,74.3z M348.2,85.7
	c0-7.9,5.3-11.9,15.8-11.9c3.7,0,7.7,0.3,11.9,0.8v-4.9c0-6.1-3.8-9.1-11.5-9.1c-4.1,0-8.3,0.6-12.6,1.9V59
	c4.3-1.3,8.5-1.9,12.6-1.9c10.3,0,15.5,4.1,15.5,12.4v27.5h-2.4l-0.9-3.9c-5,2.6-9.8,3.9-14.5,3.9C352.8,96.9,348.2,93.2,348.2,85.7
	z M363.9,77.2c-7.9,0-11.8,2.8-11.8,8.3c0,5.3,3.3,8,9.9,8c4.9,0,9.5-1.3,13.8-3.9V78C371.6,77.5,367.7,77.2,363.9,77.2z
	 M391.8,50.6h2.8l0.7,6.5h12v3.4h-11.6v25.2c0,5.2,1.9,7.9,5.8,7.9h5.8v3.4h-5.8c-6.5,0-9.7-3.6-9.7-10.7V50.6z M431.8,57.1
	c10.9,0,16.4,6,16.4,18.1c0,0.9,0,1.8-0.1,2.7h-30.2c0,10.4,5.5,15.6,16.5,15.6c4.5,0,8.5-0.6,12.1-1.9V95
	c-3.5,1.3-7.5,1.9-12.1,1.9c-13.7,0-20.5-6.8-20.5-20.4C413.9,63.6,419.9,57.1,431.8,57.1z M417.9,74.3h26.5
	c-0.2-9.3-4.3-13.9-12.5-13.9C423,60.4,418.3,65.1,417.9,74.3z M477,95v-4.2c5.7,2,12,3,18.8,3c11.4,0,17-4.3,17-12.9
	c0-6.3-3.7-9.5-11.1-9.5h-11.2c-10.1,0-15.1-4.6-15.1-13.7c0-10.4,7.4-15.6,22.2-15.6c6.1,0,12,0.8,17.6,2.3v3.8
	c-5.7-1.8-11.6-2.7-17.6-2.7c-12.1,0-18.2,4-18.2,12.1c0,6.6,3.7,9.9,11.2,9.9h11.2c10,0,15.1,4.4,15.1,13.3c0,10.9-7,16.3-21,16.3
	C489,97.3,482.7,96.5,477,95z M525.2,77c0-13.5,6.2-20.3,18.6-20.3c12.4,0,18.6,6.8,18.6,20.3c0,13.5-6.2,20.3-18.6,20.3
	C531.4,97.3,525.2,90.5,525.2,77z M543.8,93.9c9.7,0,14.6-5.7,14.6-17c0-11.2-4.9-16.7-14.6-16.7c-9.7,0-14.6,5.6-14.6,16.7
	C529.2,88.2,534.1,93.9,543.8,93.9z M572.6,96.9V57.1h2.8l0.4,5c4.1-3.3,8.5-5,13.2-5c6.3,0,10.3,1.8,12.2,5.5
	c4.6-3.6,9.2-5.5,13.9-5.5c8.9,0,13.4,4.4,13.4,13.2v26.6h-4V70.3c0-6.5-3.1-9.7-9.4-9.7c-5,0-9.1,1.7-12.4,5.2v31.1h-4V69.7
	c0-6-3.2-9-9.7-9c-4.7,0-8.9,1.7-12.5,5.2v31.1H572.6z M656.8,57.1c10.9,0,16.4,6,16.4,18.1c0,0.9,0,1.8-0.1,2.7h-30.2
	c0,10.4,5.5,15.6,16.5,15.6c4.5,0,8.5-0.6,12.1-1.9V95c-3.5,1.3-7.5,1.9-12.1,1.9c-13.7,0-20.5-6.8-20.5-20.4
	C638.8,63.6,644.8,57.1,656.8,57.1z M642.8,74.3h26.5c-0.2-9.3-4.3-13.9-12.5-13.9C647.9,60.4,643.3,65.1,642.8,74.3z M683.2,50.6
	h2.8l0.7,6.5h12v3.4h-11.6v25.2c0,5.2,1.9,7.9,5.8,7.9h5.8v3.4h-5.8c-6.5,0-9.7-3.6-9.7-10.7V50.6z M707.2,96.9V42.7h4v18.7
	c4.7-2.9,9.4-4.3,14.3-4.3c9.7,0,14.5,4.9,14.5,14.8v25h-4V70.3c0-6.4-3.6-9.6-10.7-9.6c-4.8,0-9.5,1.7-14.1,5v31.2H707.2z
	 M757.2,42.7v4.6h-4.7v-4.6H757.2z M756.9,57.1v39.8h-4V57.1H756.9z M769.8,96.9V57.1h2.8l0.5,5.1c5.1-3.4,10.1-5.1,14.9-5.1
	c9.7,0,14.5,4.2,14.5,12.6v27.3h-4V69.5c0-5.9-3.6-8.9-10.7-8.9c-4.8,0-9.5,1.7-14.1,5v31.2H769.8z M847.6,96.9
	c0,9.6-5.9,14.4-17.6,14.4c-4.9,0-9.3-0.6-13.1-1.9V106c3.9,1.3,8.2,1.9,13.1,1.9c9,0,13.5-3.7,13.5-11V95
	c-4.5,1.3-8.5,1.9-11.9,1.9c-12.6,0-18.9-6.7-18.9-20.1c0-13.1,6.8-19.7,20.3-19.7c5.1,0,10,0.5,14.5,1.6V96.9z M843.6,61.6
	c-3.7-0.6-7.3-0.9-10.8-0.9c-10.7,0-16.1,5.3-16.1,16c0,11,5,16.4,15.1,16.4c3.6,0,7.6-0.7,11.9-2V61.6z"/>
</svg>
