<?xml version="1.0" encoding="utf-8"?>
<!-- Generator: Adobe Illustrator 18.0.0, SVG Export Plug-In . SVG Version: 6.00 Build 0)  -->
<!DOCTYPE svg PUBLIC "-//W3C//DTD SVG 1.1//EN" "http://www.w3.org/Graphics/SVG/1.1/DTD/svg11.dtd">
<svg version="1.1" id="Layer_1" xmlns="http://www.w3.org/2000/svg" xmlns:xlink="http://www.w3.org/1999/xlink" x="0px" y="0px"
	 viewBox="0 0 497.8 497.8" enable-background="new 0 0 497.8 497.8" xml:space="preserve">
<g>
	<path d="M497.8,93.3v311.1c0,51.6-41.8,93.3-93.3,93.3H93.3C41.8,497.8,0,456.1,0,404.5V93.3C0,41.8,41.8,0,93.3,0h311.1
		C456,0,497.8,41.8,497.8,93.3z M383.7,124.5H114.1c-17.2,0-31.1,13.9-31.1,31.1c0,17.5,18.1,36.6,31.8,45.7
		c28.5,19.1,58,37,86.5,55.7c12.3,8.1,32.7,23,47.6,23s35.3-14.9,47.6-23c28.9-18.8,57.7-37.3,86.5-56.4
		c12.7-8.4,31.8-27.9,31.8-44.1C414.8,139,401.9,124.5,383.7,124.5z M414.8,201c-6.2,6.8-13,12.9-20.7,17.8
		c-30.5,20.1-61.9,38.9-92.1,59.6c-15.2,10.7-34,22.4-53.1,22.4s-37.9-11.6-53.1-22.4c-30.1-20.7-61.9-39.2-92.1-59.9
		c-7.5-4.9-13.3-12-20.7-17.5v141.3c0,17.2,13.9,31.1,31.1,31.1h269.6c17.2,0,31.1-13.9,31.1-31.1V201z"/>
</g>
</svg>
