<?xml version="1.0" encoding="utf-8"?>
<!-- Generator: Adobe Illustrator 18.0.0, SVG Export Plug-In . SVG Version: 6.00 Build 0)  -->
<!DOCTYPE svg PUBLIC "-//W3C//DTD SVG 1.1//EN" "http://www.w3.org/Graphics/SVG/1.1/DTD/svg11.dtd">
<svg version="1.1" id="Layer_1" xmlns="http://www.w3.org/2000/svg" xmlns:xlink="http://www.w3.org/1999/xlink" x="0px" y="0px"
	 viewBox="0 0 497.8 497.8" enable-background="new 0 0 497.8 497.8" xml:space="preserve">
<g>
	<path d="M497.8,93.3v311.1c0,51.5-41.8,93.3-93.3,93.3h-61V305H408l9.7-75.2h-74.2v-47.9c0-21.7,5.8-36.3,37.3-36.3l39.5-0.4V78.1
		c-6.8-1-30.5-3-57.7-3c-57.4,0-96.9,35.1-96.9,99.2v55.4H201V305h64.8v192.8H93.3C41.8,497.8,0,456,0,404.5V93.3
		C0,41.8,41.8,0,93.3,0h311.1C456,0,497.8,41.8,497.8,93.3z"/>
</g>
</svg>
