<?xml version="1.0" encoding="utf-8"?>
<!-- Generator: Adobe Illustrator 18.0.0, SVG Export Plug-In . SVG Version: 6.00 Build 0)  -->
<!DOCTYPE svg PUBLIC "-//W3C//DTD SVG 1.1//EN" "http://www.w3.org/Graphics/SVG/1.1/DTD/svg11.dtd">
<svg version="1.1" id="Layer_1" xmlns="http://www.w3.org/2000/svg" xmlns:xlink="http://www.w3.org/1999/xlink" x="0px" y="0px"
	 viewBox="0 0 497.8 497.9" enable-background="new 0 0 497.8 497.9" xml:space="preserve">
<g>
	<path d="M497.8,404.5c0,51.5-41.8,93.3-93.3,93.3H93.3C41.8,497.9,0,456,0,404.5V93.3C0,41.8,41.8,0,93.3,0h311.1
		c51.5,0,93.3,41.8,93.3,93.3V404.5z M307.6,72.6h-85.9c-53.5,0-110.2,32.7-110.2,91.7c0,40.8,32.1,70,72.3,70c4.5,0,9.4-0.3,13.9-1
		c-2.6,5.8-4.2,11.3-4.2,17.5c0,12.3,5.5,21.1,13,30.5c-27.9,2-59.3,5.5-83.3,20.5c-19.2,12-33.8,31.4-33.8,54.4
		c0,48.3,54.8,64.2,94,64.2c49.9,0,114.4-25.2,114.4-84.6c0-57.4-63.5-67.8-63.5-94.7c0-26.2,48.6-32.7,48.6-86.2
		c0-28.5-12.3-42.8-30.8-61.6h26.9L307.6,72.6z M204.5,401.6c-33.4,0-76.5-14.6-76.5-54.8c0-42.5,49.6-53.1,83.3-53.1
		c3.2,0,6.5,0,10,0.6c19.8,14.2,47.3,31.1,47.3,59C268.7,389,235.3,401.6,204.5,401.6z M204.2,221.7c-37,0-54.4-48.6-54.4-79.4
		c0-24.3,12.7-47.7,40.2-47.7c37,0,54.8,51.5,54.8,82C244.7,201.3,230.8,221.7,204.2,221.7z M414.8,238.5v-20.7h-41.5v-41.5h-20.7
		v41.5h-41.5v20.7h41.5v51.9h20.7v-51.9H414.8z"/>
</g>
</svg>
