<?xml version="1.0" encoding="utf-8"?>
<!-- Generator: Adobe Illustrator 18.0.0, SVG Export Plug-In . SVG Version: 6.00 Build 0)  -->
<!DOCTYPE svg PUBLIC "-//W3C//DTD SVG 1.1//EN" "http://www.w3.org/Graphics/SVG/1.1/DTD/svg11.dtd">
<svg version="1.1" id="Layer_1" xmlns="http://www.w3.org/2000/svg" xmlns:xlink="http://www.w3.org/1999/xlink" x="0px" y="0px"
	 viewBox="0 0 497.8 497.8" enable-background="new 0 0 497.8 497.8" xml:space="preserve">
<g>
	<path d="M497.8,404.5c0,51.6-41.8,93.3-93.3,93.3H93.3C41.8,497.8,0,456.1,0,404.5V93.3C0,41.8,41.8,0,93.3,0h311.1
		c51.5,0,93.3,41.8,93.3,93.3V404.5z M114.7,83.7c-25.6,0-42.5,16.8-42.5,38.8c0,21.4,16.2,38.9,41.5,38.9h0.3
		c26.2,0,42.5-17.5,42.5-38.9C156.2,100.5,140.3,83.7,114.7,83.7z M151.7,416.8V191.9H76.8v224.9H151.7z M421,416.8V287.8
		c0-69.1-37-101.2-86.2-101.2c-40.2,0-58,22.4-67.7,38h0.7v-32.8h-74.9c0,0,1,21.1,0,224.9h74.9V291.1c0-6.5,0.3-13.4,2.2-18.2
		c5.5-13.3,17.8-27.2,38.6-27.2c26.9,0,37.6,20.5,37.6,50.9v120.2H421z"/>
</g>
</svg>
