<?xml version="1.0" encoding="utf-8"?>
<!-- Generator: Adobe Illustrator 18.0.0, SVG Export Plug-In . SVG Version: 6.00 Build 0)  -->
<!DOCTYPE svg PUBLIC "-//W3C//DTD SVG 1.1//EN" "http://www.w3.org/Graphics/SVG/1.1/DTD/svg11.dtd">
<svg version="1.1" id="Layer_1" xmlns="http://www.w3.org/2000/svg" xmlns:xlink="http://www.w3.org/1999/xlink" x="0px" y="0px"
	 viewBox="0 0 969.3 155.9" enable-background="new 0 0 969.3 155.9" xml:space="preserve">
<g id="Text_30_">
	<path id="Text_25_" d="M189.9,141.9c-12.2,0-22.2-0.8-22.2-1.8c0-1,10-1.8,22.2-1.8h10.2c12.2,0,22.2-10,22.2-22.2v-5.3
		c0-12.2-10-22.2-22.2-22.2h-10.2c-12.2,0-22.2-10-22.2-22.2V54.3c0-12.2,10-22.2,22.2-22.2h13.8c12.2,0,22.2,0.8,22.2,1.8
		s-10,1.8-22.2,1.8h-10.2c-12.2,0-22.2,10-22.2,22.2v4.9c0,12.2,10,22.2,22.2,22.2h10.2c12.2,0,22.2,10,22.2,22.2v12.5
		c0,12.2-10,22.2-22.2,22.2H189.9z M260.6,119.6v-12.6c0-12.2-0.8-22.2-1.8-22.2s-1.8,10-1.8,22.2v12.6c0,12.2,0.8,22.2,1.8,22.2
		S260.6,131.8,260.6,119.6z M330,119.6v-12.6c0-12.2-0.8-22.2-1.8-22.2s-1.8,10-1.8,22.2v12.6c0,12.2,0.8,22.2,1.8,22.2
		S330,131.8,330,119.6z M781.8,119.6v-12.6c0-12.2-0.8-22.2-1.8-22.2s-1.8,10-1.8,22.2v12.6c0,12.2,0.8,22.2,1.8,22.2
		S781.8,131.8,781.8,119.6z M295.3,119.6V53.2c0-12.2-0.8-22.2-1.8-22.2s-1.8,10-1.8,22.2v66.4c0,12.2,0.8,22.2,1.8,22.2
		S295.3,131.8,295.3,119.6z M487.4,141.7c12.2,0,22.2-10,22.2-22.2v-12.8c0-12.2-10-22.2-22.2-22.2h-18.3c-12.2,0-22.2,10-22.2,22.2
		v12.8c0,12.2,10,22.2,22.2,22.2H487.4z M450.5,110.4c0-12.2,10-22.2,22.2-22.2h11.1c12.2,0,22.2,10,22.2,22.2v5.6
		c0,12.2-10,22.2-22.2,22.2h-11.1c-12.2,0-22.2-10-22.2-22.2V110.4z M947.1,141.7c12.2,0,22.2-10,22.2-22.2V53.2
		c0-12.2-0.8-22.2-1.8-22.2s-1.8,10-1.8,22.2v9.2c0,12.2-10,22.2-22.2,22.2h-14.7c-12.2,0-22.2,10-22.2,22.2v12.8
		c0,12.2,10,22.2,22.2,22.2H947.1z M910.3,110.4c0-12.2,10-22.2,22.2-22.2h11.1c12.2,0,22.2,10,22.2,22.2v5.6
		c0,12.2-10,22.2-22.2,22.2h-11.1c-12.2,0-22.2-10-22.2-22.2V110.4z M603.3,119.6v-12.8c0-12.2-10-22.2-22.2-22.2h-18.3
		c-12.2,0-22.2,10-22.2,22.2v12.8c0,12.2,0.8,22.2,1.8,22.2s1.8-10,1.8-22.2v-9.2c0-12.2,10-22.2,22.2-22.2h11.1
		c12.2,0,22.2,10,22.2,22.2v9.2c0,12.2,0.8,22.2,1.8,22.2C602.5,141.7,603.3,131.8,603.3,119.6z M875.6,119.6v-12.8
		c0-12.2-10-22.2-22.2-22.2h-18.3c-12.2,0-22.2,10-22.2,22.2v12.8c0,12.2,0.8,22.2,1.8,22.2s1.8-10,1.8-22.2v-9.2
		c0-12.2,10-22.2,22.2-22.2h11.1c12.2,0,22.2,10,22.2,22.2v9.2c0,12.2,0.8,22.2,1.8,22.2S875.6,131.8,875.6,119.6z M393.6,141.7
		c12.2,0,22.2-0.8,22.2-1.8s-10-1.8-22.2-1.8h-6.7c-12.2,0-22.2-10-22.2-22.2v-5.6c0-12.2,10-22.2,22.2-22.2h6.7
		c12.2,0,22.2-0.8,22.2-1.8c0-1-10-1.8-22.2-1.8h-10.3c-12.2,0-22.2,10-22.2,22.2v12.8c0,12.2,10,22.2,22.2,22.2H393.6z
		 M747.1,119.6V53.2c0-12.2-1.5-22.2-3.3-22.2s-7.3,9.1-12.3,20.3l-31,70.2c-4.9,11.2-8.1,20.3-7.1,20.3c1,0,6-9.1,10.9-20.3
		l30.2-67.7c5-11.1,9-10.3,9,1.9v63.9c0,12.2,0.8,22.2,1.8,22.2C746.3,141.7,747.1,131.8,747.1,119.6z M681,121.5l-31.2-70.2
		c-5-11.1-10.4-20.3-12.2-20.3c-1.7,0-3.2,10-3.2,22.2v66.4c0,12.2,0.8,22.2,1.8,22.2s1.8-10,1.8-22.2V55.5c0-12.2,4-13.1,9-1.9
		l30,67.9c4.9,11.2,9.9,20.3,11,20.3S686,132.6,681,121.5z M780,52.9c-0.9,0-1.7,4.7-1.7,10.5c0,5.8,0.8,10.5,1.7,10.5
		s1.7-4.7,1.7-10.5C781.7,57.7,781,52.9,780,52.9z M328.2,52.9c-0.9,0-1.7,4.7-1.7,10.5c0,5.8,0.8,10.5,1.7,10.5
		c0.9,0,1.7-4.7,1.7-10.5C329.9,57.7,329.1,52.9,328.2,52.9z M258.8,52.9c-0.9,0-1.7,4.7-1.7,10.5c0,5.8,0.8,10.5,1.7,10.5
		c0.9,0,1.7-4.7,1.7-10.5C260.5,57.7,259.7,52.9,258.8,52.9z"/>
</g>
<g id="Brain_Cell">
	<path id="Brain_Cell_1_" d="M35.8,0c19.3,30.8,19,45.6,16.8,62.5c-2.4,17-15.2,46.2-52.6,93.4c21.8-26.4,37.4-43.5,62.9-50.9
		c24.9-7.3,53-5.2,86.9,6.4c-25.5-8.5-45.3-20.4-62.6-38.9C73.3,57.8,48.8,19.2,35.8,0z"/>
</g>
</svg>
