<?xml version="1.0" encoding="utf-8"?>
<!-- Generator: Adobe Illustrator 18.0.0, SVG Export Plug-In . SVG Version: 6.00 Build 0)  -->
<!DOCTYPE svg PUBLIC "-//W3C//DTD SVG 1.1//EN" "http://www.w3.org/Graphics/SVG/1.1/DTD/svg11.dtd">
<svg version="1.1" id="Layer_1" xmlns="http://www.w3.org/2000/svg" xmlns:xlink="http://www.w3.org/1999/xlink" x="0px" y="0px"
	 viewBox="0 0 666.8 143.4" enable-background="new 0 0 666.8 143.4" xml:space="preserve">
<rect x="0.1" y="0" fill="#FFFFFF" width="666.6" height="143.4"/>
<linearGradient id="SVGID_1_" gradientUnits="userSpaceOnUse" x1="130.8373" y1="274.2827" x2="535.9573" y2="-130.8373">
	<stop  offset="1.461837e-007" style="stop-color:#43D343"/>
	<stop  offset="1" style="stop-color:#43D3FF"/>
</linearGradient>
<path fill="url(#SVGID_1_)" d="M666.8,143.4H0V0h666.8V143.4z M3.8,138.4H663V5.1H3.8V138.4z M75.4,96.6V42.1h9l20,45.4l19.6-45.4
	h8.6v54.5h-6.3V51.9l-19.3,44.7h-5.6L81.6,51.9v44.7H75.4z M161.2,56.6c11.4,0,17.1,5.6,17.1,16.9c0,1.6-0.1,3.3-0.3,5.1h-28.1
	c0,8.2,4.8,12.3,14.3,12.3c4.5,0,8.6-0.5,12.1-1.5v5.7c-3.5,1-7.8,1.5-12.9,1.5c-13.7,0-20.6-6.8-20.6-20.5
	C142.8,63.1,148.9,56.6,161.2,56.6z M149.8,72.7h21.6c-0.2-7-3.6-10.5-10.3-10.5C154.1,62.2,150.3,65.7,149.8,72.7z M204.2,56.6
	c11.4,0,17.1,5.6,17.1,16.9c0,1.6-0.1,3.3-0.3,5.1h-28.1c0,8.2,4.8,12.3,14.3,12.3c4.5,0,8.6-0.5,12.1-1.5v5.7
	c-3.5,1-7.8,1.5-12.9,1.5c-13.7,0-20.6-6.8-20.6-20.5C185.8,63.1,191.9,56.6,204.2,56.6z M192.9,72.7h21.6
	c-0.2-7-3.6-10.5-10.3-10.5C197.1,62.2,193.3,65.7,192.9,72.7z M230.8,50.1h4.4l1.5,6.5h10.8v5.7h-9.7v23c0,3.7,1.6,5.6,4.8,5.6h4.9
	v5.7h-6.7c-6.7,0-10.1-3.6-10.1-10.8V50.1z M275.5,50.1h4.4l1.5,6.5h10.8v5.7h-9.7v23c0,3.7,1.6,5.6,4.8,5.6h4.9v5.7h-6.7
	c-6.7,0-10.1-3.6-10.1-10.8V50.1z M301.2,96.6V42.1h7v18.8c3.4-2.9,7.6-4.3,12.5-4.3c10,0,15,5,15,14.9v25.1h-7V71.4
	c0-5.9-3-8.9-8.9-8.9c-4,0-7.9,1.7-11.5,5.1v29.1H301.2z M363.6,56.6c11.4,0,17.1,5.6,17.1,16.9c0,1.6-0.1,3.3-0.3,5.1h-28.1
	c0,8.2,4.8,12.3,14.3,12.3c4.5,0,8.6-0.5,12.1-1.5v5.7c-3.5,1-7.8,1.5-12.9,1.5c-13.7,0-20.6-6.8-20.6-20.5
	C345.2,63.1,351.3,56.6,363.6,56.6z M352.2,72.7h21.6c-0.2-7-3.6-10.5-10.3-10.5C356.5,62.2,352.7,65.7,352.2,72.7z M446.7,42.1v5.7
	h-17.1v48.8h-7V47.8h-17.1v-5.7H446.7z M465.1,56.6c11.4,0,17.1,5.6,17.1,16.9c0,1.6-0.1,3.3-0.3,5.1h-28.1
	c0,8.2,4.8,12.3,14.3,12.3c4.5,0,8.6-0.5,12.1-1.5v5.7c-3.5,1-7.8,1.5-12.9,1.5c-13.7,0-20.6-6.8-20.6-20.5
	C446.7,63.1,452.8,56.6,465.1,56.6z M453.7,72.7h21.6c-0.2-7-3.6-10.5-10.3-10.5C458,62.2,454.2,65.7,453.7,72.7z M489.7,84.5
	c0-8.2,5.4-12.3,16.2-12.3c3.5,0,7,0.3,10.4,0.8v-3.8c0-4.6-3.6-6.9-10.8-6.9c-4.1,0-8.3,0.6-12.6,1.9v-5.7
	c4.3-1.3,8.5-1.9,12.6-1.9c11.9,0,17.8,4.1,17.8,12.4v27.6h-4l-2.4-4c-4,2.6-8.3,4-13,4C494.5,96.6,489.7,92.5,489.7,84.5z
	 M506,77.9c-6.1,0-9.2,2.2-9.2,6.5s2.4,6.5,7.2,6.5c4.9,0,9-1.3,12.4-3.9v-8.3C512.9,78.2,509.4,77.9,506,77.9z M534.9,96.6v-40h4.8
	l1.2,5c3.8-3.4,8-5,12.5-5c5.8,0,9.7,1.8,11.8,5.5c4.3-3.7,8.7-5.5,13.2-5.5c9.2,0,13.8,5.1,13.8,15.2v24.8h-7V71.4c0-6-2.5-9-7.5-9
	c-3.8,0-7.3,1.7-10.5,5.2v28.9h-7V71.5c0-6-2.5-9.1-7.5-9.1c-4,0-7.5,1.7-10.6,5.2v28.9H534.9z"/>
</svg>
