<?xml version="1.0" encoding="utf-8"?>
<!-- Generator: Adobe Illustrator 18.0.0, SVG Export Plug-In . SVG Version: 6.00 Build 0)  -->
<!DOCTYPE svg PUBLIC "-//W3C//DTD SVG 1.1//EN" "http://www.w3.org/Graphics/SVG/1.1/DTD/svg11.dtd">
<svg version="1.1" id="Layer_1" xmlns="http://www.w3.org/2000/svg" xmlns:xlink="http://www.w3.org/1999/xlink" x="0px" y="0px"
	 viewBox="0 0 666.8 143.4" enable-background="new 0 0 666.8 143.4" xml:space="preserve">
<linearGradient id="SVGID_1_" gradientUnits="userSpaceOnUse" x1="130.8837" y1="274.2363" x2="535.911" y2="-130.791">
	<stop  offset="1.461837e-007" style="stop-color:#43D343"/>
	<stop  offset="1" style="stop-color:#43D3FF"/>
</linearGradient>
<rect x="0.1" y="0" fill="url(#SVGID_1_)" width="666.6" height="143.4"/>
<path fill="#FFFFFF" d="M74.4,98.6V44.1h9l20,45.4l19.6-45.4h8.6v54.5h-6.3V53.9l-19.3,44.7h-5.6L80.6,53.9v44.7H74.4z M160.2,58.6
	c11.4,0,17.1,5.6,17.1,16.9c0,1.6-0.1,3.3-0.3,5.1h-28.1c0,8.2,4.8,12.3,14.3,12.3c4.5,0,8.6-0.5,12.1-1.5v5.7
	c-3.5,1-7.8,1.5-12.9,1.5c-13.7,0-20.6-6.8-20.6-20.5C141.8,65.1,147.9,58.6,160.2,58.6z M148.8,74.7h21.6
	c-0.2-7-3.6-10.5-10.3-10.5C153.1,64.2,149.3,67.7,148.8,74.7z M203.2,58.6c11.4,0,17.1,5.6,17.1,16.9c0,1.6-0.1,3.3-0.3,5.1h-28.1
	c0,8.2,4.8,12.3,14.3,12.3c4.5,0,8.6-0.5,12.1-1.5v5.7c-3.5,1-7.8,1.5-12.9,1.5c-13.7,0-20.6-6.8-20.6-20.5
	C184.8,65.1,190.9,58.6,203.2,58.6z M191.9,74.7h21.6c-0.2-7-3.6-10.5-10.3-10.5C196.1,64.2,192.3,67.7,191.9,74.7z M229.8,52.1h4.4
	l1.5,6.5h10.8v5.7h-9.7v23c0,3.7,1.6,5.6,4.8,5.6h4.9v5.7h-6.7c-6.7,0-10.1-3.6-10.1-10.8V52.1z M274.5,52.1h4.4l1.5,6.5h10.8v5.7
	h-9.7v23c0,3.7,1.6,5.6,4.8,5.6h4.9v5.7h-6.7c-6.7,0-10.1-3.6-10.1-10.8V52.1z M300.2,98.6V44.1h7v18.8c3.4-2.9,7.6-4.3,12.5-4.3
	c10,0,15,5,15,14.9v25.1h-7V73.4c0-5.9-3-8.9-8.9-8.9c-4,0-7.9,1.7-11.5,5.1v29.1H300.2z M362.6,58.6c11.4,0,17.1,5.6,17.1,16.9
	c0,1.6-0.1,3.3-0.3,5.1h-28.1c0,8.2,4.8,12.3,14.3,12.3c4.5,0,8.6-0.5,12.1-1.5v5.7c-3.5,1-7.8,1.5-12.9,1.5
	c-13.7,0-20.6-6.8-20.6-20.5C344.2,65.1,350.3,58.6,362.6,58.6z M351.2,74.7h21.6c-0.2-7-3.6-10.5-10.3-10.5
	C355.5,64.2,351.7,67.7,351.2,74.7z M445.7,44.1v5.7h-17.1v48.8h-7V49.8h-17.1v-5.7H445.7z M464.1,58.6c11.4,0,17.1,5.6,17.1,16.9
	c0,1.6-0.1,3.3-0.3,5.1h-28.1c0,8.2,4.8,12.3,14.3,12.3c4.5,0,8.6-0.5,12.1-1.5v5.7c-3.5,1-7.8,1.5-12.9,1.5
	c-13.7,0-20.6-6.8-20.6-20.5C445.7,65.1,451.8,58.6,464.1,58.6z M452.7,74.7h21.6c-0.2-7-3.6-10.5-10.3-10.5
	C457,64.2,453.2,67.7,452.7,74.7z M488.7,86.5c0-8.2,5.4-12.3,16.2-12.3c3.5,0,7,0.3,10.4,0.8v-3.8c0-4.6-3.6-6.9-10.8-6.9
	c-4.1,0-8.3,0.6-12.6,1.9v-5.7c4.3-1.3,8.5-1.9,12.6-1.9c11.9,0,17.8,4.1,17.8,12.4v27.6h-4l-2.4-4c-4,2.6-8.3,4-13,4
	C493.5,98.6,488.7,94.5,488.7,86.5z M505,79.9c-6.1,0-9.2,2.2-9.2,6.5s2.4,6.5,7.2,6.5c4.9,0,9-1.3,12.4-3.9v-8.3
	C511.9,80.2,508.4,79.9,505,79.9z M533.9,98.6v-40h4.8l1.2,5c3.8-3.4,8-5,12.5-5c5.8,0,9.7,1.8,11.8,5.5c4.3-3.7,8.7-5.5,13.2-5.5
	c9.2,0,13.8,5.1,13.8,15.2v24.8h-7V73.4c0-6-2.5-9-7.5-9c-3.8,0-7.3,1.7-10.5,5.2v28.9h-7V73.5c0-6-2.5-9.1-7.5-9.1
	c-4,0-7.5,1.7-10.6,5.2v28.9H533.9z"/>
</svg>
