<?xml version="1.0" encoding="utf-8"?>
<!-- Generator: Adobe Illustrator 18.0.0, SVG Export Plug-In . SVG Version: 6.00 Build 0)  -->
<!DOCTYPE svg PUBLIC "-//W3C//DTD SVG 1.1//EN" "http://www.w3.org/Graphics/SVG/1.1/DTD/svg11.dtd">
<svg version="1.1" id="Layer_1" xmlns="http://www.w3.org/2000/svg" xmlns:xlink="http://www.w3.org/1999/xlink" x="0px" y="0px"
	 viewBox="311.3 51.8 713 560.1" enable-background="new 311.3 51.8 713 560.1" xml:space="preserve">
<g>
	<path d="M947.8,494.2c0,7.2-1.4,16.5-4.1,28.1c-2.6,11.5-5.4,20.6-8.4,27.1c-5.5,13.3-21.7,27.4-48.5,42.2
		c-24.9,13.5-49.6,20.3-74.1,20.3c-7.1,0-14.1-0.5-20.9-1.4s-14.4-2.6-22.8-4.9c-8.5-2.3-14.7-4.3-18.9-5.8
		c-4.1-1.5-11.4-4.2-22.1-8.2c-10.6-4.1-17.1-6.4-19.5-7.1c-25.9-9.3-49.1-20.3-69.5-33c-33.9-21-69-49.5-105.2-85.7
		c-36.1-36.1-64.7-71.2-85.7-105.2c-12.8-20.4-23.7-43.6-33-69.6c-0.9-2.3-3.2-8.8-7.1-19.4c-3.9-10.6-6.6-18.1-8.1-22.1
		c-1.5-4.1-3.4-10.3-5.8-18.9c-2.3-8.5-4.1-16.1-4.9-22.8c-0.9-6.6-1.4-13.8-1.4-20.9c0-24.4,6.8-49,20.3-73.9
		c14.9-26.9,28.9-43,42.1-48.6c6.6-2.9,15.7-5.8,27.3-8.4c11.5-2.7,20.9-4.1,28-4.1c3.7,0,6.5,0.4,8.4,1.2
		c4.8,1.6,11.8,11.7,21.1,30.2c2.9,5,6.9,12.2,11.9,21.5s9.7,17.7,13.9,25.3c4.2,7.6,8.4,14.7,12.3,21.2c0.9,1.1,3.1,4.4,7,9.9
		c3.8,5.6,6.6,10.2,8.6,14.1c1.8,3.9,2.7,7.6,2.7,11.3c0,5.3-3.8,11.9-11.3,19.9c-7.5,8-15.7,15.2-24.7,21.9
		c-8.8,6.6-17.1,13.6-24.7,21c-7.6,7.4-11.3,13.5-11.3,18.3c0,2.3,0.7,5.3,2,9c1.4,3.6,2.5,6.3,3.4,8.1c1,1.8,2.7,5,5.5,9.6
		c2.8,4.4,4.3,7,4.5,7.6c20.1,36.2,43.2,67.4,69.1,93.3c26,26,57.1,49.1,93.5,69.3c0.5,0.2,3.1,1.7,7.6,4.5c4.4,2.8,7.6,4.7,9.6,5.6
		c1.8,0.9,4.5,2.1,8.1,3.3c3.6,1.2,6.5,2,9,2c4.8,0,10.8-3.8,18.3-11.3c7.4-7.6,14.4-15.7,21-24.6c6.6-8.8,13.9-17.2,21.9-24.7
		c8-7.6,14.6-11.3,19.9-11.3c3.7,0,7.5,1,11.3,2.8c3.8,1.8,8.6,4.8,14.1,8.5c5.5,3.9,8.8,6.3,9.9,7c6.6,4.1,13.8,8.1,21.2,12.3
		c7.5,4.2,16,8.8,25.3,13.9s16.5,9.1,21.5,12c18.5,9.3,28.7,16.3,30.2,21C947.6,487.6,947.8,490.5,947.8,494.2z"/>
</g>
</svg>
