<?xml version="1.0" encoding="utf-8"?>
<!-- Generator: Adobe Illustrator 18.0.0, SVG Export Plug-In . SVG Version: 6.00 Build 0)  -->
<!DOCTYPE svg PUBLIC "-//W3C//DTD SVG 1.1//EN" "http://www.w3.org/Graphics/SVG/1.1/DTD/svg11.dtd">
<svg version="1.1" id="Layer_1" xmlns="http://www.w3.org/2000/svg" xmlns:xlink="http://www.w3.org/1999/xlink" x="0px" y="0px"
	 viewBox="0 0 497.8 497.8" enable-background="new 0 0 497.8 497.8" xml:space="preserve">
<g>
	<path d="M497.8,404.5c0,51.5-41.8,93.3-93.3,93.3H93.3C41.8,497.8,0,456,0,404.5V93.3C0,41.8,41.8,0,93.3,0h311.1
		c51.5,0,93.3,41.8,93.3,93.3V404.5z M414.2,340c-1.9-5.8-49.3-29.8-58.3-35c-6.2-3.6-13.6-10.7-21.1-10.7
		c-14.2,0-35.3,42.5-47.9,42.5c-6.5,0-14.6-5.8-20.4-9.1c-42.8-24-72.2-53.4-96.2-96.2c-3.3-5.9-9.1-14-9.1-20.4
		c0-12.7,42.5-33.8,42.5-48c0-7.5-7.1-14.9-10.7-21.1c-5.2-9.1-29.2-56.3-35-58.4c-1.6-0.6-3.6-0.6-5.2-0.6c-8.4,0-25,3.9-32.7,7.1
		c-21.4,9.8-37,50.5-37,72.9c0,21.7,8.7,41.5,16.2,61.5c25.9,71,103.1,148.2,174,174.1c20.1,7.4,39.9,16.2,61.6,16.2
		c22.4,0,63.2-15.6,72.9-36.9c3.2-7.8,7.1-24.3,7.1-32.8C414.8,343.6,414.8,341.6,414.2,340z"/>
</g>
</svg>
