<?xml version="1.0" encoding="utf-8"?>
<!-- Generator: Adobe Illustrator 18.0.0, SVG Export Plug-In . SVG Version: 6.00 Build 0)  -->
<!DOCTYPE svg PUBLIC "-//W3C//DTD SVG 1.1//EN" "http://www.w3.org/Graphics/SVG/1.1/DTD/svg11.dtd">
<svg version="1.1" xmlns="http://www.w3.org/2000/svg" xmlns:xlink="http://www.w3.org/1999/xlink" x="0px" y="0px"
	 viewBox="0 0 412.9 250" enable-background="new 0 0 412.9 250" xml:space="preserve">
<g id="Background" display="none">
	<rect x="0" y="-81.5" display="inline" fill="#43D343" width="413" height="413.5"/>
</g>
<g id="Elements">
	<rect x="109.3" y="175.5" opacity="0.4" fill="#FFFFFF" width="67.6" height="7"/>
	<path opacity="0.4" fill="#FFFFFF" d="M302.1,200h-26c-1.2,0-2.1-0.9-2.1-2.1v-2.8c0-1.2,0.9-2.1,2.1-2.1h26c1.2,0,2.1,0.9,2.1,2.1
		v2.8C304.2,199.1,303.3,200,302.1,200z"/>
	<g>
		<path opacity="0.4" fill="#FFFFFF" d="M139.3,200h-26c-1.2,0-2.1-0.9-2.1-2.1v-2.8c0-1.2,0.9-2.1,2.1-2.1h26
			c1.2,0,2.1,0.9,2.1,2.1v2.8C141.4,199.1,140.5,200,139.3,200z"/>
		<path opacity="0.4" fill="#FFFFFF" d="M173,200h-26c-1.2,0-2.1-0.9-2.1-2.1v-2.8c0-1.2,0.9-2.1,2.1-2.1h26c1.2,0,2.1,0.9,2.1,2.1
			v2.8C175.1,199.1,174.2,200,173,200z"/>
	</g>
	<g id="Graph">
		<g opacity="0.4">
			<g>
				<polyline fill="none" stroke="#FFFFFF" stroke-width="3" stroke-miterlimit="10" points="102.3,154.4 135.1,119.4 148.1,132.7 
					182.6,97 				"/>
				<g>
					<polygon fill="#FFFFFF" points="185.5,102.1 188.3,91.1 177.3,94.2 					"/>
				</g>
			</g>
		</g>
		<polygon opacity="0.4" fill="#FFFFFF" points="94.5,166 94.5,76 91.5,76 91.5,82 85.5,82 85.5,83 91.5,83 91.5,95 85.5,95 
			85.5,96 91.5,96 91.5,107 85.5,107 85.5,108 91.5,108 91.5,119 85.5,119 85.5,121 91.5,121 91.5,132 85.5,132 85.5,135 91.5,135 
			91.5,145 85.5,145 85.5,148 91.5,148 91.5,159 85.5,159 85.5,160 91.5,160 91.5,168 193.5,168 193.5,166 		"/>
	</g>
	<rect x="99.9" y="48.4" opacity="0.4" fill="#FFFFFF" width="86.5" height="8.9"/>
	<rect x="230.8" y="48.4" opacity="0.4" fill="#FFFFFF" width="86.5" height="8.9"/>
	<g>
		<rect x="237.6" y="63.6" opacity="0.4" fill="#FFFFFF" width="73" height="1.8"/>
		<rect x="237.6" y="67.1" opacity="0.4" fill="#FFFFFF" width="73" height="1.8"/>
		<rect x="237.6" y="70.7" opacity="0.4" fill="#FFFFFF" width="73" height="1.8"/>
		<rect x="237.6" y="74.3" opacity="0.4" fill="#FFFFFF" width="57.9" height="1.8"/>
	</g>
	<g id="Pie_Chart">
		<path opacity="0.4" fill="#FFFFFF" d="M273.5,123l36.6-11.4c-5.2-15.3-20.6-26.3-36.6-26.5V123z"/>
		<path opacity="0.4" fill="#FFFFFF" d="M270.5,125.5V85.2c-20,0.7-37.5,17.9-37.5,39.1c0,21.6,17.6,39.1,39.2,39.1
			s39.2-17.5,39.2-39.1c0-3.8-0.7-7.4-1.7-10.8L270.5,125.5z"/>
	</g>
	<g>
		<path fill="#FFFFFF" d="M68.5,22v188h154.7l-0.4-3H72.5V36h268v171h-83.5l2,3h84.5V22H68.5z M308.9,34.4c-2.4,0-4.4-2-4.4-4.4
			c0-2.4,2-4.4,4.4-4.4c2.4,0,4.4,2,4.4,4.4C313.3,32.4,311.3,34.4,308.9,34.4z M321.8,34.4c-2.4,0-4.4-2-4.4-4.4
			c0-2.4,2-4.4,4.4-4.4c2.4,0,4.4,2,4.4,4.4C326.2,32.4,324.2,34.4,321.8,34.4z M334.6,34.4c-2.4,0-4.4-2-4.4-4.4
			c0-2.4,2-4.4,4.4-4.4c2.4,0,4.4,2,4.4,4.4C339.1,32.4,337.1,34.4,334.6,34.4z"/>
		<polygon fill="#FFFFFF" points="246.3,210 244.3,207 236,207 233.1,210 		"/>
	</g>
	<path opacity="0.4" fill="#FFFFFF" d="M268.6,194h-6.1l-12.1,0.8l3.2,5.2h15.1c1.1,0,1.9-0.8,1.9-1.9V195
		C270.5,193.9,269.7,194,268.6,194z"/>
	<polygon opacity="0.4" fill="#FFFFFF" points="257.8,176 266.6,183 305.5,183 305.5,176 	"/>
	<polygon fill="#FFFFFF" points="273.4,190.1 218.3,146.7 225.7,216.4 241.2,196.7 261.4,233.3 267.8,229.7 247.4,192.8 	"/>
</g>
</svg>
