<?xml version="1.0" encoding="utf-8"?>
<!-- Generator: Adobe Illustrator 18.0.0, SVG Export Plug-In . SVG Version: 6.00 Build 0)  -->
<!DOCTYPE svg PUBLIC "-//W3C//DTD SVG 1.1//EN" "http://www.w3.org/Graphics/SVG/1.1/DTD/svg11.dtd">
<svg version="1.1" id="Layer_1" xmlns="http://www.w3.org/2000/svg" xmlns:xlink="http://www.w3.org/1999/xlink" x="0px" y="0px"
	 viewBox="0 0 497.8 497.8" enable-background="new 0 0 497.8 497.8" xml:space="preserve">
<g>
	<path d="M497.8,404.5c0,51.5-41.8,93.3-93.3,93.3H93.3C41.8,497.8,0,456,0,404.5V93.3C0,41.8,41.8,0,93.3,0h311.1
		c51.5,0,93.3,41.8,93.3,93.3V404.5z M375.6,167.3c14.2-8.4,24.9-22.1,30.1-37.9c-13.3,7.8-27.9,13.6-43.4,16.5
		c-12.3-13.3-30.1-21.4-49.6-21.4c-37.6,0-68.1,30.5-68.1,68.1c0,5.2,0.3,10.7,1.6,15.6c-56.7-2.9-107-29.8-140.7-71.3
		c-5.8,10.1-9.4,22.1-9.4,34.4c0,23.6,11,44.4,29.5,56.7c-11.3-0.4-22-3.6-32.4-8.4c0,0,0,0.3,0,0.7c0,33,25,60.6,56.1,66.7
		c-5.8,1.7-10.4,2.6-16.5,2.6c-4.2,0-8.4-0.7-12.7-1.3c8.7,26.9,33.7,46.7,63.5,47.3c-23.3,18.2-52.5,29.2-84.6,29.2
		c-5.5,0-11-0.3-16.2-1c30.1,19.2,65.8,30.5,104.4,30.5c125.1,0,193.8-103.7,193.8-193.8c0-2.9,0-5.8-0.3-8.7
		c13.3-9.4,24.9-21.4,34-35.3C402.5,161.7,389.6,165.3,375.6,167.3z"/>
</g>
</svg>
