<?xml version="1.0" encoding="utf-8"?>
<!-- Generator: Adobe Illustrator 18.0.0, SVG Export Plug-In . SVG Version: 6.00 Build 0)  -->
<!DOCTYPE svg PUBLIC "-//W3C//DTD SVG 1.1//EN" "http://www.w3.org/Graphics/SVG/1.1/DTD/svg11.dtd">
<svg version="1.1" xmlns="http://www.w3.org/2000/svg" xmlns:xlink="http://www.w3.org/1999/xlink" x="0px" y="0px"
	 viewBox="0 0 412.9 250" enable-background="new 0 0 412.9 250" xml:space="preserve">
<g id="Background" display="none">
	<rect x="0" y="-72.5" display="inline" fill="#43D343" width="412.9" height="412.9"/>
</g>
<g id="Elements">
	<g id="PC">
		<g>
			<circle opacity="0.4" fill="#FFFFFF" cx="96.5" cy="61.2" r="8.4"/>
			<path opacity="0.4" fill="#FFFFFF" d="M161.9,64.4h-49.6c-1,0-1.9-0.8-1.9-1.9v-2.7c0-1,0.8-1.9,1.9-1.9h49.6
				c1,0,1.9,0.8,1.9,1.9v2.7C163.7,63.6,162.9,64.4,161.9,64.4z"/>
		</g>
		<rect x="88" y="146.7" opacity="0.4" fill="#FFFFFF" width="42.3" height="10.6"/>
		<path opacity="0.4" fill="#FFFFFF" d="M224.4,64.4H199c-1,0-1.9-0.8-1.9-1.9v-2.7c0-1,0.8-1.9,1.9-1.9h25.3c1,0,1.9,0.8,1.9,1.9
			v2.7C226.2,63.6,225.4,64.4,224.4,64.4z"/>
		<path opacity="0.4" fill="#FFFFFF" d="M257.1,64.4h-25.3c-1,0-1.9-0.8-1.9-1.9v-2.7c0-1,0.8-1.9,1.9-1.9h25.3c1,0,1.9,0.8,1.9,1.9
			v2.7C259,63.6,258.1,64.4,257.1,64.4z"/>
		<path opacity="0.4" fill="#FFFFFF" d="M289.8,64.4h-25.3c-1,0-1.9-0.8-1.9-1.9v-2.7c0-1,0.8-1.9,1.9-1.9h25.3c1,0,1.9,0.8,1.9,1.9
			v2.7C291.7,63.6,290.8,64.4,289.8,64.4z"/>
		<path opacity="0.4" fill="#FFFFFF" d="M322.5,64.4h-25.3c-1,0-1.9-0.8-1.9-1.9v-2.7c0-1,0.8-1.9,1.9-1.9h25.3c1,0,1.9,0.8,1.9,1.9
			v2.7C324.4,63.6,323.6,64.4,322.5,64.4z"/>
		<path fill="#FFFFFF" d="M355.5,211V41.6c0-4.6-4.2-8.6-8.7-8.6H66.2c-4.4,0-8.7,3.9-8.7,8.6V211h-21v2.9c0,3.3,3,7.1,6.2,7.1
			h109.1c-6.6-2.3-11.3-8.6-11.3-16v-1h-73V42h278v55c3.1,3.1,5,7.3,5,12v96c0,7.4-4.7,13.7-11.3,16h31.2c3.2,0,5.1-3.7,5.1-7.1V211
			H355.5z"/>
		<path opacity="0.4" fill="#FFFFFF" d="M240.5,92v-6.8c0-1.1-0.7-2.2-1.9-2.2h-65.1c-1.1,0-2.1,1-2.1,2.2V92H240.5z"/>
		<path opacity="0.4" fill="#FFFFFF" d="M324.5,92v-6.8c0-1.1-0.8-2.2-1.9-2.2h-65.1c-1.1,0-2.1,1-2.1,2.2V92H324.5z"/>
		<rect x="88.5" y="189" opacity="0.4" fill="#FFFFFF" width="52" height="4"/>
		<rect x="88.5" y="183" opacity="0.4" fill="#FFFFFF" width="52" height="3"/>
		<rect x="88.5" y="176" opacity="0.4" fill="#FFFFFF" width="52" height="3"/>
		<rect x="88.5" y="169" opacity="0.4" fill="#FFFFFF" width="52" height="3"/>
		<rect x="88.5" y="162" opacity="0.4" fill="#FFFFFF" width="52" height="3"/>
		<path opacity="0.4" fill="#FFFFFF" d="M140.5,109c0-9.3,7-16.8,17-17v-6.8c0-1.1-1.2-2.2-2.3-2.2H90.1c-1.1,0-1.6,1-1.6,2.2v44.2
			c0,1.1,0.5,1.7,1.6,1.7h50.4V109z"/>
	</g>
	<g id="Tablet">
		<g>
			<circle opacity="0.4" fill="#FFFFFF" cx="230.2" cy="115.7" r="4.5"/>
			<path opacity="0.4" fill="#FFFFFF" d="M264,117.4h-24.8c-0.9,0-1.7-0.8-1.7-1.7l0,0c0-0.9,0.8-1.7,1.7-1.7H264
				c0.9,0,1.7,0.8,1.7,1.7l0,0C265.7,116.6,265,117.4,264,117.4z"/>
		</g>
		<path opacity="0.4" fill="#FFFFFF" d="M230.6,163.9h-48.4c-1.1,0-2.1-0.9-2.1-2.1V137c0-1.1,0.9-2.1,2.1-2.1h48.4
			c1.1,0,2.1,0.9,2.1,2.1v24.9C232.6,163,231.7,163.9,230.6,163.9z"/>
		<rect x="180.1" y="173.1" opacity="0.4" fill="#FFFFFF" width="32.1" height="6.4"/>
		<rect x="180.1" y="182.3" opacity="0.4" fill="#FFFFFF" width="52.3" height="1.9"/>
		<rect x="180.1" y="186.5" opacity="0.4" fill="#FFFFFF" width="52.3" height="1.9"/>
		<rect x="180.1" y="190.6" opacity="0.4" fill="#FFFFFF" width="52.3" height="1.9"/>
		<rect x="180.1" y="194.7" opacity="0.4" fill="#FFFFFF" width="52.3" height="1.9"/>
		<rect x="180.1" y="198.8" opacity="0.4" fill="#FFFFFF" width="45.7" height="1.9"/>
		<path fill="#FFFFFF" d="M333.5,94h-176c-8.3,0-15,6.7-15,15v96c0,8.3,6.7,15,15,15h120.5c-2.1-2-3.5-4.8-3.5-8v-6h-116V105h174
			v18.8c3,2,5,5.4,5,9.2v79c0,3.1-1.3,6-3.4,8c8-0.3,14.4-6.9,14.4-15v-96C348.5,100.7,341.7,94,333.5,94z M150.9,159
			c-2,0-3.5-1.6-3.5-3.5c0-2,1.6-3.5,3.5-3.5s3.5,1.6,3.5,3.5C154.5,157.4,152.9,159,150.9,159z M341.5,165.3c0,0.4-0.3,0.7-0.7,0.7
			h-0.7c-0.4,0-0.7-0.3-0.7-0.7v-18.7c0-0.4,0.3-0.7,0.7-0.7h0.7c0.4,0,0.7,0.3,0.7,0.7V165.3z"/>
		<rect x="258.5" y="199" opacity="0.4" fill="#FFFFFF" width="16" height="2"/>
		<rect x="258.5" y="195" opacity="0.4" fill="#FFFFFF" width="16" height="2"/>
		<rect x="258.5" y="191" opacity="0.4" fill="#FFFFFF" width="16" height="2"/>
		<rect x="258.5" y="186" opacity="0.4" fill="#FFFFFF" width="16" height="2"/>
		<rect x="258.5" y="182" opacity="0.4" fill="#FFFFFF" width="16" height="2"/>
		<rect x="258.5" y="173" opacity="0.4" fill="#FFFFFF" width="16" height="6"/>
		<path opacity="0.4" fill="#FFFFFF" d="M274.5,135h-13.9c-1.1,0-2.1,0.8-2.1,2v24.9c0,1.1,1,2.1,2.1,2.1h13.9V135z"/>
		<path opacity="0.4" fill="#FFFFFF" d="M279,124h-72.5v4h69.2C276.4,127,277.6,125,279,124z"/>
	</g>
	<g id="Phone">
		<path fill="#FFFFFF" d="M326.5,124h-41c-5,0-9,4-9,9v79c0,5,4,9,9,9h41c5,0,9-4,9-9v-79C335.5,128,331.4,124,326.5,124z
			 M313.5,127.5c0,0.3-0.2,0.5-0.5,0.5h-14c-0.3,0-0.5-0.2-0.5-0.5l0,0c0-0.3,0.2-0.5,0.5-0.5h14C313.2,127,313.5,127.2,313.5,127.5
			L313.5,127.5z M311.5,214.9c0,0.6-0.5,1.1-1.1,1.1h-7.7c-0.6,0-1.1-0.5-1.1-1.1v-0.7c0-0.6,0.5-1.1,1.1-1.1h7.7
			c0.6,0,1.1,0.5,1.1,1.1V214.9z M330.5,209h-49v-77h49V209z"/>
		<circle opacity="0.4" fill="#FFFFFF" cx="290.5" cy="139.6" r="4.5"/>
		<path opacity="0.4" fill="#FFFFFF" d="M324.3,141.3h-24.8c-0.9,0-1.7-0.8-1.7-1.7l0,0c0-0.9,0.8-1.7,1.7-1.7h24.8
			c0.9,0,1.7,0.8,1.7,1.7l0,0C326,140.6,325.2,141.3,324.3,141.3z"/>
		<path opacity="0.4" fill="#FFFFFF" d="M325.5,171.7h-39.1c-1.1,0-2.1-0.9-2.1-2.1v-19.8c0-1.1,0.9-2.1,2.1-2.1h39.1
			c1.1,0,2.1,0.9,2.1,2.1v19.8C327.6,170.8,326.6,171.7,325.5,171.7z"/>
		<rect x="284.3" y="179.3" opacity="0.4" fill="#FFFFFF" width="26.4" height="5.2"/>
		<rect x="284.3" y="186.9" opacity="0.4" fill="#FFFFFF" width="43.1" height="1.6"/>
		<rect x="284.3" y="190.3" opacity="0.4" fill="#FFFFFF" width="43.1" height="1.6"/>
		<rect x="284.3" y="193.7" opacity="0.4" fill="#FFFFFF" width="43.1" height="1.6"/>
		<rect x="284.3" y="197.1" opacity="0.4" fill="#FFFFFF" width="43.1" height="1.6"/>
		<rect x="284.3" y="200.5" opacity="0.4" fill="#FFFFFF" width="37.6" height="1.6"/>
	</g>
</g>
</svg>
