<?xml version="1.0" encoding="utf-8"?>
<!-- Generator: Adobe Illustrator 18.0.0, SVG Export Plug-In . SVG Version: 6.00 Build 0)  -->
<!DOCTYPE svg PUBLIC "-//W3C//DTD SVG 1.1//EN" "http://www.w3.org/Graphics/SVG/1.1/DTD/svg11.dtd">
<svg version="1.1" xmlns="http://www.w3.org/2000/svg" xmlns:xlink="http://www.w3.org/1999/xlink" x="0px" y="0px"
	 viewBox="0 0 500 500" enable-background="new 0 0 500 500" xml:space="preserve">
<g id="Background" display="none">
	<rect display="inline" fill="#43D343" width="500" height="500"/>
</g>
<g id="Circle">
	<circle fill="none" stroke="#FFFFFF" stroke-width="10" stroke-miterlimit="10" cx="250" cy="250" r="201.5"/>
</g>
<g id="Elements">
	<g id="PC">
		<g>
			<circle opacity="0.4" fill="#FFFFFF" cx="140" cy="180.2" r="8.4"/>
			<path opacity="0.4" fill="#FFFFFF" d="M205.4,183.4h-49.6c-1,0-1.9-0.8-1.9-1.9v-2.7c0-1,0.8-1.9,1.9-1.9h49.6
				c1,0,1.9,0.8,1.9,1.9v2.7C207.3,182.6,206.4,183.4,205.4,183.4z"/>
		</g>
		<rect x="131.6" y="265.7" opacity="0.4" fill="#FFFFFF" width="42.3" height="10.6"/>
		<path opacity="0.4" fill="#FFFFFF" d="M267.9,183.4h-25.3c-1,0-1.9-0.8-1.9-1.9v-2.7c0-1,0.8-1.9,1.9-1.9h25.3
			c1,0,1.9,0.8,1.9,1.9v2.7C269.8,182.6,268.9,183.4,267.9,183.4z"/>
		<path opacity="0.4" fill="#FFFFFF" d="M300.6,183.4h-25.3c-1,0-1.9-0.8-1.9-1.9v-2.7c0-1,0.8-1.9,1.9-1.9h25.3
			c1,0,1.9,0.8,1.9,1.9v2.7C302.5,182.6,301.7,183.4,300.6,183.4z"/>
		<path opacity="0.4" fill="#FFFFFF" d="M333.4,183.4H308c-1,0-1.9-0.8-1.9-1.9v-2.7c0-1,0.8-1.9,1.9-1.9h25.3c1,0,1.9,0.8,1.9,1.9
			v2.7C335.2,182.6,334.4,183.4,333.4,183.4z"/>
		<path opacity="0.4" fill="#FFFFFF" d="M366.1,183.4h-25.3c-1,0-1.9-0.8-1.9-1.9v-2.7c0-1,0.8-1.9,1.9-1.9h25.3
			c1,0,1.9,0.8,1.9,1.9v2.7C367.9,182.6,367.1,183.4,366.1,183.4z"/>
		<path fill="#FFFFFF" d="M399,330V160.6c0-4.6-4.2-8.6-8.7-8.6H109.7c-4.4,0-8.7,3.9-8.7,8.6V330H80v2.9c0,3.3,3,7.1,6.2,7.1h109.1
			c-6.6-2.3-11.3-8.6-11.3-16v-1h-73V161h278v55c3.1,3.1,5,7.3,5,12v96c0,7.4-4.7,13.7-11.3,16h31.2c3.2,0,5.1-3.7,5.1-7.1V330H399z
			"/>
		<path opacity="0.4" fill="#FFFFFF" d="M284,211v-6.8c0-1.1-0.7-2.2-1.9-2.2h-65.1c-1.1,0-2.1,1-2.1,2.2v6.8H284z"/>
		<path opacity="0.4" fill="#FFFFFF" d="M368,211v-6.8c0-1.1-0.8-2.2-1.9-2.2h-65.1c-1.1,0-2.1,1-2.1,2.2v6.8H368z"/>
		<rect x="132" y="308" opacity="0.4" fill="#FFFFFF" width="52" height="4"/>
		<rect x="132" y="302" opacity="0.4" fill="#FFFFFF" width="52" height="3"/>
		<rect x="132" y="295" opacity="0.4" fill="#FFFFFF" width="52" height="3"/>
		<rect x="132" y="288" opacity="0.4" fill="#FFFFFF" width="52" height="3"/>
		<rect x="132" y="281" opacity="0.4" fill="#FFFFFF" width="52" height="3"/>
		<path opacity="0.4" fill="#FFFFFF" d="M184,228c0-9.3,7-16.8,17-17v-6.8c0-1.1-1.2-2.2-2.3-2.2h-65.1c-1.1,0-1.6,1-1.6,2.2v44.2
			c0,1.1,0.5,1.7,1.6,1.7H184V228z"/>
	</g>
	<g id="Tablet">
		<g>
			<circle opacity="0.4" fill="#FFFFFF" cx="273.7" cy="234.7" r="4.5"/>
			<path opacity="0.4" fill="#FFFFFF" d="M307.6,236.4h-24.8c-0.9,0-1.7-0.8-1.7-1.7l0,0c0-0.9,0.8-1.7,1.7-1.7h24.8
				c0.9,0,1.7,0.8,1.7,1.7l0,0C309.3,235.6,308.5,236.4,307.6,236.4z"/>
		</g>
		<path opacity="0.4" fill="#FFFFFF" d="M274.1,282.9h-48.4c-1.1,0-2.1-0.9-2.1-2.1V256c0-1.1,0.9-2.1,2.1-2.1h48.4
			c1.1,0,2.1,0.9,2.1,2.1v24.9C276.2,282,275.2,282.9,274.1,282.9z"/>
		<rect x="223.7" y="292.1" opacity="0.4" fill="#FFFFFF" width="32.1" height="6.4"/>
		<rect x="223.7" y="301.3" opacity="0.4" fill="#FFFFFF" width="52.3" height="1.9"/>
		<rect x="223.7" y="305.5" opacity="0.4" fill="#FFFFFF" width="52.3" height="1.9"/>
		<rect x="223.7" y="309.6" opacity="0.4" fill="#FFFFFF" width="52.3" height="1.9"/>
		<rect x="223.7" y="313.7" opacity="0.4" fill="#FFFFFF" width="52.3" height="1.9"/>
		<rect x="223.7" y="317.8" opacity="0.4" fill="#FFFFFF" width="45.7" height="1.9"/>
		<path fill="#FFFFFF" d="M377,213H201c-8.3,0-15,6.7-15,15v96c0,8.3,6.7,15,15,15h120.5c-2.1-2-3.5-4.8-3.5-8v-6H202V224h174v18.8
			c3,2,5,5.4,5,9.2v79c0,3.1-1.3,6-3.4,8c8-0.3,14.4-6.9,14.4-15v-96C392,219.7,385.3,213,377,213z M194.5,278c-2,0-3.5-1.6-3.5-3.5
			c0-2,1.6-3.5,3.5-3.5s3.5,1.6,3.5,3.5C198,276.4,196.4,278,194.5,278z M385,284.3c0,0.4-0.3,0.7-0.7,0.7h-0.7
			c-0.4,0-0.7-0.3-0.7-0.7v-18.7c0-0.4,0.3-0.7,0.7-0.7h0.7c0.4,0,0.7,0.3,0.7,0.7V284.3z"/>
		<rect x="302" y="318" opacity="0.4" fill="#FFFFFF" width="16" height="2"/>
		<rect x="302" y="314" opacity="0.4" fill="#FFFFFF" width="16" height="2"/>
		<rect x="302" y="310" opacity="0.4" fill="#FFFFFF" width="16" height="2"/>
		<rect x="302" y="305" opacity="0.4" fill="#FFFFFF" width="16" height="2"/>
		<rect x="302" y="301" opacity="0.4" fill="#FFFFFF" width="16" height="2"/>
		<rect x="302" y="292" opacity="0.4" fill="#FFFFFF" width="16" height="6"/>
		<path opacity="0.4" fill="#FFFFFF" d="M318,254h-13.9c-1.1,0-2.1,0.8-2.1,2v24.9c0,1.1,1,2.1,2.1,2.1H318V254z"/>
		<path opacity="0.4" fill="#FFFFFF" d="M322.5,243H250v4h69.2C320,246,321.1,244,322.5,243z"/>
	</g>
	<g id="Phone">
		<path fill="#FFFFFF" d="M370,243h-41c-5,0-9,4-9,9v79c0,5,4,9,9,9h41c5,0,9-4,9-9v-79C379,247,375,243,370,243z M357,246.5
			c0,0.3-0.2,0.5-0.5,0.5h-14c-0.3,0-0.5-0.2-0.5-0.5l0,0c0-0.3,0.2-0.5,0.5-0.5h14C356.8,246,357,246.2,357,246.5L357,246.5z
			 M355,333.9c0,0.6-0.5,1.1-1.1,1.1h-7.7c-0.6,0-1.1-0.5-1.1-1.1v-0.7c0-0.6,0.5-1.1,1.1-1.1h7.7c0.6,0,1.1,0.5,1.1,1.1V333.9z
			 M374,328h-49v-77h49V328z"/>
		<circle opacity="0.4" fill="#FFFFFF" cx="334.1" cy="258.6" r="4.5"/>
		<path opacity="0.4" fill="#FFFFFF" d="M367.9,260.3h-24.8c-0.9,0-1.7-0.8-1.7-1.7l0,0c0-0.9,0.8-1.7,1.7-1.7h24.8
			c0.9,0,1.7,0.8,1.7,1.7l0,0C369.6,259.6,368.8,260.3,367.9,260.3z"/>
		<path opacity="0.4" fill="#FFFFFF" d="M369,290.7h-39.1c-1.1,0-2.1-0.9-2.1-2.1v-19.8c0-1.1,0.9-2.1,2.1-2.1H369
			c1.1,0,2.1,0.9,2.1,2.1v19.8C371.1,289.8,370.2,290.7,369,290.7z"/>
		<rect x="327.8" y="298.3" opacity="0.4" fill="#FFFFFF" width="26.4" height="5.2"/>
		<rect x="327.8" y="305.9" opacity="0.4" fill="#FFFFFF" width="43.1" height="1.6"/>
		<rect x="327.8" y="309.3" opacity="0.4" fill="#FFFFFF" width="43.1" height="1.6"/>
		<rect x="327.8" y="312.7" opacity="0.4" fill="#FFFFFF" width="43.1" height="1.6"/>
		<rect x="327.8" y="316.1" opacity="0.4" fill="#FFFFFF" width="43.1" height="1.6"/>
		<rect x="327.8" y="319.5" opacity="0.4" fill="#FFFFFF" width="37.6" height="1.6"/>
	</g>
</g>
<g id="Shadows__x26__Highlights">
	<g id="Shadow">
		<path opacity="0.1" d="M439.7,225.8c0,105.5-93.7,190.9-209.3,190.9c-42.9,0-82.8-11.8-116-32c34.3,34.5,81.6,56,134,56.5
			c105.1,0.9,191.8-84.1,192.8-189.3C441.3,243.1,440.7,234.3,439.7,225.8z"/>
		<path fill="none" d="M439.5,226"/>
		<path fill="none" d="M114.3,384.8L114.3,384.8c33.2,20.1,73.1,31.9,116,31.9"/>
	</g>
	<g id="Highlights">
		<ellipse opacity="0.15" fill="#FFFFFF" cx="250.8" cy="117.5" rx="110.8" ry="47.5"/>
		<path opacity="0.15" fill="#FFFFFF" d="M123.8,126.6c-2.1-20.7-50.4,53-49.6,85.8c13.2-27.5,41.2-47,66.9-55.3
			c2.1-0.7,2.5-3.5,0.6-4.6C130.4,145.5,124.5,133.8,123.8,126.6z"/>
	</g>
</g>
</svg>
